<svg xmlns="http://www.w3.org/2000/svg" version="1.1" xmlns:xlink="http://www.w3.org/1999/xlink" width="109" height="109"><svg width="109" height="109" viewBox="0 0 109 109" fill="none" xmlns="http://www.w3.org/2000/svg">
<rect width="109" height="109" fill="#FEF0E9"></rect>
<path d="M23.1257 30.0546C23.1257 30.3394 23.0444 30.5836 22.8409 30.7464C22.3119 31.2754 21.7422 31.7637 21.2132 32.252C21.0911 32.3334 20.969 32.4148 20.847 32.4961C20.5214 32.6589 20.1959 32.6182 19.911 32.4555C19.0972 32.0078 18.2833 31.5195 17.4695 31.0312C15.8825 30.0546 14.2954 29.0373 12.7084 28.1013C11.4876 27.3689 10.2262 26.6364 9.00539 25.9039C8.27293 25.4563 8.19155 25.1715 8.67986 24.439C8.72055 24.3576 8.80193 24.2762 8.84263 24.1949C9.29024 23.6658 9.73787 23.1775 10.1855 22.6485C10.3889 22.4044 10.6331 22.1602 10.7959 21.8754C11.1621 21.3057 11.6504 20.8174 12.098 20.2884C12.1794 20.207 12.2608 20.1256 12.3829 20.0442C12.8712 19.6373 13.4002 19.5966 13.9292 20.0035C14.2141 20.207 14.4989 20.4511 14.7431 20.6953C16.4521 22.4451 18.2426 24.1135 19.911 25.9446C20.6028 26.7178 21.4167 27.3689 22.0677 28.1827C22.3933 28.549 22.6781 28.9559 22.963 29.3628C23.0444 29.607 23.1257 29.8511 23.1257 30.0546Z" fill="#5E1D0B"></path>
<path d="M28.5379 21.3871C28.5379 22.6078 28.5379 23.7879 28.5379 25.0087C28.5379 25.5784 28.4972 26.1481 28.4158 26.6771C28.3751 26.9213 28.3344 27.1654 28.253 27.4096C28.0903 27.8572 27.724 28.1014 27.2357 28.0607C26.6253 27.9793 26.0556 27.7758 25.5266 27.491C25.2825 27.3282 25.1197 27.1247 25.0383 26.8806C23.9803 24.2355 22.963 21.6312 21.905 18.9862C21.7015 18.4979 21.4981 18.0096 21.2946 17.562C21.0911 17.0736 21.2132 16.6667 21.6608 16.3819C21.7829 16.3412 21.905 16.2598 21.9864 16.2191C23.492 15.8529 24.9976 15.4459 26.5439 15.2425C26.7881 15.2018 27.0323 15.2018 27.2764 15.2018C28.0089 15.2018 28.3344 15.4866 28.4158 16.2191C28.4158 16.3819 28.4158 16.5446 28.4158 16.7074C28.3751 17.684 28.3751 18.6607 28.4158 19.6373C28.5379 20.207 28.4972 20.7767 28.5379 21.3871Z" fill="#5E1D0B"></path>
<path d="M64.6728 42.5065C65.1611 42.7507 65.5273 43.0762 65.8529 43.4831C66.3005 44.0528 66.4632 44.7039 66.3005 45.3957C66.1377 46.0468 66.0563 46.6979 65.8935 47.3489C65.7308 48.1221 65.5273 48.8953 65.3645 49.6684C64.8762 51.9065 64.3879 54.1446 63.9403 56.3827C63.2892 59.3533 62.6381 62.3645 61.9871 65.3351C61.7836 66.271 61.4987 67.1663 61.1325 68.0615C60.8883 68.6719 60.5221 68.8753 59.871 68.8753C59.7083 68.8753 59.5455 68.8754 59.3827 68.794C58.9351 68.6719 58.4875 68.5498 58.0806 68.387C55.8018 67.5325 53.4416 66.8407 51.1221 66.0676C49.6979 65.5792 48.2736 65.0909 46.8087 64.5619C46.6052 64.4805 46.4018 64.4399 46.1983 64.4805C44.5299 64.7654 43.0243 64.2771 41.7221 63.2191C41.6 63.097 41.4373 62.9749 41.2745 62.8528C41.0303 63.4225 40.7862 63.9922 40.542 64.5212C40.2572 65.0909 39.8503 65.5386 39.4026 66.0269C39.5247 66.1082 39.6468 66.2303 39.7282 66.3117C40.1758 66.6373 40.6234 66.9628 41.071 67.329C41.3559 67.5325 41.6 67.736 41.8442 67.9394C42.8208 68.6312 43.594 69.5264 44.2044 70.5844C44.7334 71.4797 44.7741 72.4156 44.4078 73.3922C44.2857 73.7178 44.123 74.0433 43.9602 74.4502C44.4078 74.7351 44.8148 74.9792 45.2217 75.1827C47.0528 76.0779 48.884 76.9732 50.7152 77.8684C52.587 78.8044 54.4589 79.7403 56.3715 80.6762C56.6156 80.7983 56.8598 80.9204 57.0632 81.0831C58.1212 81.9784 58.3654 82.5074 57.9585 83.9723C57.8771 84.2165 57.7957 84.5013 57.755 84.7455C57.5109 85.8442 57.2667 86.9429 57.0225 88.0416C56.5342 90.2797 56.0459 92.5178 55.5576 94.7559C55.5169 94.8779 55.5576 95 55.5576 95.1221C55.8425 95.1221 56.0866 95.1221 56.3308 95.1221C67.684 95.1628 79.0373 95.1628 90.3905 95.2035C90.6347 95.2035 90.8788 95.2035 91.123 95.2035C91.2451 95.2035 91.3671 95.1628 91.4892 95.1221C91.5706 94.9593 91.6113 94.7966 91.6927 94.6338C92.5065 92.5178 93.1576 90.3611 93.8087 88.1637C94.297 86.4953 94.7853 84.8676 95.2329 83.1992C95.884 80.9204 96.4537 78.6009 96.82 76.2814C97.1455 74.2061 97.471 72.1715 97.7966 70.1368C97.9187 69.4044 98.0814 68.6719 98.1628 67.9394C98.3663 66.678 98.4883 65.3758 98.6918 64.1143C98.8546 62.9749 98.936 61.8355 98.936 60.6961C98.936 59.3126 98.8546 57.9697 98.6918 56.5862C98.4477 54.4702 97.7966 52.5576 96.4944 50.8485C95.4771 49.5463 94.297 48.407 92.7914 47.6745C92.4251 47.5117 92.0589 47.3083 91.652 47.1455C91.6113 47.1048 91.5299 47.1455 91.4892 47.1455C91.4078 47.2676 91.4892 47.3896 91.4892 47.5117C91.6113 47.9593 91.7741 48.3663 91.8555 48.8139C92.0589 49.9533 92.2217 51.0927 92.3031 52.2728C92.4658 55.1212 92.1403 57.9697 91.7741 60.7775C91.5299 62.6087 91.3264 64.3992 91.0823 66.2303C91.0009 66.8 90.9195 67.3697 90.8381 67.9394C90.8381 68.0208 90.7974 68.1022 90.7974 68.1836C90.6754 68.5091 90.3498 68.6719 90.065 68.6312C89.7394 68.5905 89.4953 68.3464 89.4546 67.9801C89.4546 67.736 89.4546 67.5325 89.4953 67.2883C89.6174 66.5559 89.6987 65.8234 89.7394 65.0502C89.8208 64.0329 89.9836 62.9749 90.1464 61.9576C90.3498 60.4113 90.5533 58.8243 90.7567 57.2373C90.9602 55.284 91.0416 53.2901 90.8381 51.3368C90.6754 49.8719 90.4312 48.4476 89.9022 47.1048C89.4546 46.0061 88.7628 45.1109 87.8676 44.4191C87.2979 43.9715 86.6468 43.5645 85.9957 43.1983C85.7516 43.0355 85.4667 42.9541 85.1819 42.8321C85.1005 42.7914 85.0191 42.8321 84.897 42.8321C84.9377 43.0355 84.9377 43.1983 84.9784 43.3611C85.1819 44.3784 85.426 45.3957 85.5481 46.413C85.7922 48.0814 85.8329 49.7498 85.8736 51.4589C85.9143 52.9238 85.8736 54.3888 85.7516 55.813C85.6702 56.7896 85.5888 57.7663 85.5074 58.7429C85.3853 60.5334 85.2632 62.3645 85.0191 64.155C84.9784 64.4805 84.9377 64.7654 84.8563 65.0909C84.7749 65.4572 84.4494 65.6606 84.1238 65.6606C83.7576 65.6199 83.5135 65.3351 83.5135 64.9282C83.5135 64.684 83.5542 64.4399 83.5948 64.1957C83.7169 63.1784 83.839 62.1204 83.9204 61.1031C84.0425 59.516 84.1645 57.929 84.2866 56.3013C84.3273 55.5689 84.4087 54.7957 84.4494 54.0632C84.4494 52.5983 84.4901 51.1334 84.4087 49.7091C84.368 48.4883 84.2052 47.3083 84.0425 46.1282C83.9611 45.355 83.7576 44.6225 83.5948 43.8494C83.4321 42.9948 83.0658 42.181 82.5368 41.4892C81.6416 40.2684 80.4615 39.4139 79.078 38.8035C78.9966 38.7628 78.9152 38.7628 78.7931 38.7221C78.7524 38.7628 78.7524 38.8035 78.7524 38.8035C78.7524 38.8849 78.7524 38.9256 78.7931 39.007C79.4035 41.0009 79.5663 43.0355 79.5663 45.1108C79.5663 46.2096 79.4035 47.2676 79.3221 48.3256C79.1594 50.1567 78.7931 51.9879 78.4269 53.8191C78.1013 55.6095 77.7351 57.4 77.3689 59.1905C77.1247 60.3299 76.8399 61.51 76.555 62.6494C76.4736 62.9342 76.3516 63.2598 76.2295 63.5039C76.0667 63.8295 75.7005 63.9515 75.3749 63.8295C75.0494 63.7074 74.8866 63.3818 74.968 63.0156C75.0087 62.8935 75.0494 62.7715 75.0901 62.6494C75.2935 61.9169 75.497 61.1844 75.6598 60.4113C75.9446 59.1905 76.1481 57.929 76.3922 56.6676C76.7178 55.0399 77.0433 53.4121 77.3689 51.7844C77.7351 50.116 77.8572 48.4476 78.0606 46.7792C78.2234 45.2736 78.1827 43.768 78.02 42.3031C77.8572 40.8788 77.5723 39.4546 76.9619 38.1524C76.4736 37.1351 75.9039 36.1585 75.0901 35.3853C74.8459 35.1818 74.6425 34.9377 74.439 34.7342C73.5031 33.7576 72.4451 32.9031 71.3057 32.2113C67.1957 29.6883 62.9637 27.2875 58.6096 25.1308C56.0459 23.8693 53.4823 22.6892 50.8373 21.6312C50.6338 21.5498 50.471 21.5091 50.2676 21.4277C49.9827 21.7126 49.7386 22.0381 49.4944 22.3637C49.1689 22.8113 48.7619 23.1775 48.2736 23.5031C47.5819 23.9507 46.8494 24.2762 46.1169 24.6018C44.652 25.1715 43.1871 25.2528 41.6407 24.8459C40.2572 24.4797 38.9143 24.0728 37.6529 23.4217C36.9611 23.0554 36.2286 22.7299 35.5775 22.2416C35.3334 22.0788 35.1299 21.916 34.7637 21.8347C34.8044 22.6078 35.0485 23.2996 35.3334 23.9507C35.8217 25.2121 36.6762 26.6771 37.1238 27.1247C37.4901 27.084 37.8156 27.0026 38.1819 26.9619C38.5074 26.9212 38.8329 26.9212 39.1585 26.9619C39.5247 27.0026 39.8503 27.0433 40.2165 27.1247C40.542 27.2061 40.8676 27.3282 41.1524 27.4502C41.478 27.613 41.7628 27.7758 42.0477 27.9792C42.3325 28.1827 42.5767 28.3862 42.7801 28.6303C43.0243 28.8745 43.2277 29.1593 43.4719 29.4442C43.594 29.3221 43.6754 29.2407 43.7567 29.1593C44.5299 28.3455 45.4658 28.0606 46.6052 28.2234C47.297 28.3455 47.8667 28.5896 48.4364 28.9966C49.0875 29.4442 49.6165 30.0546 50.0234 30.7463C50.1048 30.8684 50.1048 31.0312 50.3083 31.0719C50.4303 30.9091 50.5524 30.7463 50.6745 30.5836C51.6918 29.2814 52.9126 28.3048 54.4589 27.6944C55.5169 27.2875 56.6156 27.084 57.755 27.2468C59.8303 27.5723 61.2546 28.7117 61.9057 30.7463C62.2719 31.9264 62.2312 33.1065 61.9464 34.3273C61.5394 35.8329 60.7663 37.1758 59.6676 38.2745C59.5455 38.4373 59.3827 38.5593 59.2199 38.7221C59.5862 38.9256 59.9524 39.129 60.278 39.3325C60.6442 39.536 60.9697 39.8208 61.1732 40.187C61.4174 40.5126 61.5801 40.8381 61.8243 41.2044" fill="#5E1D0B"></path>
<path d="M42.4956 73.6364C42.5362 73.6771 42.6176 73.6771 42.699 73.6771C42.9025 73.433 42.9839 73.1481 43.1059 72.8633C43.3094 72.3343 43.2687 71.8053 42.9839 71.317C42.4955 70.4624 41.8852 69.7706 41.112 69.2009C40.8271 68.9975 40.5423 68.794 40.2575 68.5499C39.6471 67.9802 38.9146 67.5732 38.2228 67.0849C38.0194 66.9221 37.8159 66.9221 37.5717 67.0035C37.0834 67.1663 36.5544 67.1663 36.0254 67.1256C35.9033 67.1256 35.7406 67.1256 35.5371 67.1256C35.5371 67.4105 35.6185 67.6139 35.6999 67.8581C36.1068 68.6719 36.5544 69.4044 37.1648 70.0555C38.7518 71.6018 40.583 72.7412 42.4956 73.6364Z" fill="#5E1D0B"></path>
<path d="M59.6271 40.6753C59.3016 40.4719 58.976 40.3091 58.6505 40.1463C58.3657 40.0242 58.0808 39.9429 57.7553 39.8208C57.4704 39.9429 57.1856 40.1056 56.86 40.2277C56.6566 40.3091 56.4531 40.3905 56.2496 40.4312C56.0055 40.4719 55.7613 40.4312 55.5579 40.2277C55.273 39.9022 55.3544 39.4545 55.7206 39.2104C55.9241 39.0883 56.1276 39.0069 56.331 38.9255C58.3657 37.9489 59.7085 36.4026 60.4003 34.2866C60.6851 33.3913 60.7665 32.4961 60.5631 31.5602C60.2375 29.8918 58.8947 28.7524 57.1856 28.671C56.0462 28.6303 54.9882 28.9151 54.0522 29.4848C52.5873 30.3394 51.5293 31.5602 50.8375 33.1065C50.7561 33.31 50.6747 33.5134 50.5527 33.6762C50.4306 33.8796 50.1864 34.0017 49.9016 34.0017C49.6167 33.961 49.4133 33.7983 49.2912 33.5134C49.2505 33.3506 49.2098 33.1879 49.2098 33.0251C49.047 31.8857 48.518 30.9498 47.5821 30.258C47.2566 30.0138 46.8903 29.8511 46.5241 29.729C45.3847 29.4441 44.4895 30.0545 44.3267 31.2346C44.286 31.4381 44.3267 31.6822 44.3267 31.9264C44.3267 32.0485 44.3267 32.1706 44.3267 32.2926C44.286 32.6996 43.9605 32.9844 43.5128 32.9844C43.1466 32.9844 42.8211 32.7403 42.7804 32.374C42.7397 32.2112 42.7397 32.0485 42.7397 31.8857C42.5362 30.258 41.641 29.1186 40.054 28.5896C39.2808 28.3454 38.5076 28.3454 37.6938 28.5082C37.531 28.5489 37.3683 28.5896 37.2055 28.6303C36.9206 28.7117 36.5951 28.8745 36.2696 29.0372C36.1068 29.1186 35.944 29.2407 35.7812 29.3221C35.4557 29.5255 35.5778 29.9732 35.9033 30.0545C36.1475 30.0952 36.3916 30.1766 36.6358 30.2987C37.4089 30.6649 38.0193 31.2346 38.5076 32.0078C38.7111 32.3333 38.8332 32.6589 38.8739 33.0658C38.996 33.9203 38.5076 34.5307 37.6531 34.6528C37.2462 34.6935 36.8799 34.6935 36.473 34.5714C36.2289 34.49 35.9847 34.4087 35.7406 34.3273C35.2115 34.1645 34.8046 34.4493 34.7639 35.019C34.7232 35.2632 34.8046 35.5074 34.9267 35.7515C35.1709 36.2805 35.2522 36.8095 35.1709 37.3792C35.0081 38.6407 33.9501 39.4545 32.6886 39.3325C31.8341 39.2511 31.1423 38.8441 30.6133 38.1931C30.5319 38.1117 30.4912 37.9896 30.3691 37.9082C30.0029 37.542 29.4332 37.7048 29.2704 38.1524C29.2297 38.3151 29.2297 38.5186 29.189 38.7221C29.189 39.0883 29.189 39.4545 29.1483 39.8615C29.1076 40.3905 28.9042 40.8788 28.6193 41.3264C28.2938 41.8554 27.8055 42.1403 27.1951 42.2623C26.7068 42.3437 26.2592 42.2216 25.8115 42.0182C25.1605 41.7333 24.6315 41.245 24.1838 40.716C23.6141 40.0242 23.1665 39.129 22.8817 38.2338C22.8817 38.1524 22.841 38.071 22.8003 38.0303C22.7189 37.7048 22.312 37.6234 22.0678 37.9082C21.9864 37.9896 21.9051 38.1117 21.8644 38.2338C21.6609 38.5186 21.4981 38.8035 21.3354 39.0883C21.1726 39.3732 21.0505 39.6987 21.0098 40.0242C20.847 40.716 20.9284 41.4485 21.0912 42.1403C21.4981 43.768 22.3934 45.0701 23.7769 46.0467C23.9397 46.1688 24.1025 46.2502 24.2245 46.3723C24.6315 46.7792 24.5094 47.3896 23.9397 47.5524C23.7769 47.5931 23.6141 47.5931 23.4514 47.6338C22.9224 47.6745 22.4341 47.8372 21.9864 48.0814C20.3994 48.9766 20.0739 50.9299 21.3354 52.2727C22.2713 53.29 23.4514 53.6563 24.8349 53.29C25.1198 53.2087 25.4046 53.0866 25.6895 52.9645C25.8522 52.8831 26.0557 52.8424 26.2185 52.8017C26.5847 52.8017 26.8696 53.0866 26.8696 53.4935C26.8696 53.7784 26.7068 54.0225 26.4626 54.1446C26.1778 54.3074 25.8522 54.4701 25.5674 54.5515C25.0791 54.7143 24.6721 54.9584 24.2652 55.284C23.4921 55.8944 23.0037 56.7082 22.6375 57.6035C21.9457 59.2312 21.7016 60.8996 21.9051 62.6493C21.9864 63.5446 22.2306 64.3991 22.6375 65.213C22.9631 65.8234 23.37 66.3931 23.9397 66.8C24.5908 67.2883 25.3232 67.4511 26.1371 67.2883C26.544 67.2069 26.8696 67.0441 27.2358 66.8407C27.7648 66.5151 28.2124 66.0675 28.5786 65.5385C29.2297 64.6433 29.6773 63.6667 29.9215 62.6087C29.9622 62.4866 29.9622 62.3645 30.0029 62.2424C30.2063 61.7134 30.8574 61.632 31.2237 62.0797C31.3051 62.2017 31.3864 62.3238 31.4678 62.4459C31.9968 63.219 32.6072 63.9515 33.3397 64.5212C33.9094 65.0095 34.5605 65.3757 35.2929 65.5792C36.7579 66.0268 38.1007 65.5385 38.9553 64.2771C39.1994 63.9108 39.3622 63.5039 39.5657 63.097C39.8505 62.4052 39.9319 61.6727 39.9726 60.9809C39.9726 60.7775 39.9726 60.6147 40.0133 60.4113C40.0947 60.1264 40.2574 59.9229 40.583 59.8822C40.8678 59.8415 41.112 59.9229 41.2748 60.2078C41.3561 60.3299 41.4375 60.4926 41.4782 60.6554C42.0886 62.1203 43.228 63.0156 44.815 63.219C47.2566 63.5039 48.8436 61.3472 48.2739 59.2719C48.2332 59.0684 48.1518 58.8649 48.1111 58.6615C48.0704 58.5394 48.0704 58.3766 48.1111 58.2139C48.1518 57.929 48.3146 57.7662 48.5994 57.6848C48.8843 57.6035 49.1284 57.6848 49.3319 57.929C49.4133 58.0511 49.4947 58.1732 49.5354 58.3359C49.6167 58.4987 49.6574 58.7022 49.7388 58.8649C50.4713 60.574 51.7328 61.632 53.5639 61.8762C55.3951 62.1203 56.9007 61.4286 57.9994 59.9636C59.0981 58.4987 59.3423 56.871 58.8133 55.1212C58.2843 53.3714 57.1042 52.232 55.3137 51.703C55.1509 51.6623 54.9882 51.6216 54.8661 51.5403C54.5812 51.4182 54.4592 51.0926 54.4999 50.8078C54.5812 50.5229 54.7847 50.2788 55.1102 50.2788C55.2323 50.2788 55.3544 50.2788 55.4765 50.2788C55.9241 50.3602 56.3717 50.4009 56.8193 50.4822C57.3076 50.5636 57.8367 50.4822 58.2843 50.2788C59.0981 49.9125 59.5457 49.1394 59.383 48.2441C59.3016 47.7965 59.1388 47.3489 58.854 46.9827C58.2436 46.1281 57.4297 45.5177 56.4531 45.1922C56.2496 45.1515 56.0462 45.1108 55.8427 45.0294C55.6799 44.948 55.4765 44.8667 55.3544 44.7853C55.0289 44.5818 54.9475 44.2563 55.0696 43.9307C55.1916 43.6052 55.5172 43.4424 55.8834 43.5238C55.9648 43.5238 56.0869 43.5645 56.1682 43.6052C56.3717 43.6459 56.5752 43.7273 56.7786 43.768C57.2263 43.9307 57.6739 43.9307 58.1215 43.89C58.7319 43.8493 59.2609 43.6866 59.7492 43.3203C60.5224 42.7506 60.6444 41.8961 60.034 41.1636C59.9527 40.9602 59.7899 40.7974 59.6271 40.6753ZM33.4211 54.9584C32.8107 55.5281 31.9561 55.3247 31.6713 54.5515C31.5085 54.0632 31.5492 53.6156 31.8341 53.168C32.0782 52.761 32.6072 52.5576 33.0141 52.639C33.4211 52.7203 33.7466 53.0866 33.828 53.5749C33.828 53.697 33.828 53.819 33.8687 53.9411C33.828 54.348 33.7466 54.6736 33.4211 54.9584ZM45.1812 42.4251C44.5708 42.1403 44.2046 41.5299 44.3267 40.9195C44.4895 40.3091 45.0592 39.8615 45.7916 39.9022C46.2392 39.9022 46.6055 40.1056 46.8903 40.4312C47.5414 41.1636 47.2159 42.2623 46.2392 42.5065C45.9137 42.5879 45.5475 42.5879 45.1812 42.4251ZM48.1925 52.3134C47.7856 52.8831 47.0124 52.9645 46.4834 52.5169C45.8323 51.9879 45.7509 50.9299 46.2799 50.2788C46.7276 49.7091 47.5007 49.6684 48.0297 50.1974C48.3553 50.5229 48.518 50.9299 48.518 51.2554C48.518 51.6623 48.4367 52.0286 48.1925 52.3134Z" fill="#5E1D0B"></path>
</svg><style>@media (prefers-color-scheme: light) { :root { filter: none; } }
@media (prefers-color-scheme: dark) { :root { filter: none; } }
</style></svg>